<?xml version="1.0" encoding="UTF-8"?>
<svg version="1.1" xmlns="http://www.w3.org/2000/svg" width="512" height="512">
<path d="M0 0 C168.96 0 337.92 0 512 0 C512 168.96 512 337.92 512 512 C343.04 512 174.08 512 0 512 C0 343.04 0 174.08 0 0 Z " fill="#1E1E1E" transform="translate(0,0)"/>
<path d="M0 0 C8.21878808 5.70783196 13.0174904 12.03560782 15.62109375 21.8203125 C16.81354945 31.96246205 15.18659049 39.97595476 9.64453125 48.44921875 C4.27723162 54.7386992 -2.41099928 59.40032718 -9.25390625 63.9453125 C-15.68641275 68.28079548 -22.04606508 72.69078508 -28.31640625 77.2578125 C-34.64773478 81.8636188 -41.02180189 86.40079506 -47.44140625 90.8828125 C-48.26801758 91.4605542 -49.09462891 92.0382959 -49.94628906 92.63354492 C-53.26171105 94.94958912 -56.57826161 97.26395599 -59.89941406 99.57177734 C-62.29101624 101.23425542 -64.67895943 102.90187494 -67.06640625 104.5703125 C-67.79158447 105.07183838 -68.5167627 105.57336426 -69.26391602 106.09008789 C-72.87244633 108.44018658 -72.87244633 108.44018658 -75.37890625 111.8203125 C-74.80035889 112.09633301 -74.22181152 112.37235352 -73.62573242 112.65673828 C-71.43508937 113.79121669 -69.46240823 115.04207663 -67.4296875 116.4375 C-66.29442627 117.21492554 -66.29442627 117.21492554 -65.13623047 118.00805664 C-63.92604248 118.84324829 -63.92604248 118.84324829 -62.69140625 119.6953125 C-61.84852051 120.27466553 -61.00563477 120.85401855 -60.13720703 121.45092773 C-52.53883395 126.68522015 -44.99619874 131.99672848 -37.47167969 137.33642578 C-34.65294948 139.33505413 -31.82983129 141.32743068 -29.00634766 143.31933594 C-27.59424009 144.31562207 -26.18245324 145.31236293 -24.77099609 146.30957031 C-21.13459189 148.87852207 -17.49431366 151.44171344 -13.84765625 153.99609375 C14.80510103 174.08438755 14.80510103 174.08438755 17.62109375 185.8203125 C19.0900551 197.88404716 17.80098109 206.81840217 10.5 216.6875 C7.15471179 220.62677662 3.00248245 223.32217724 -1.25390625 226.1953125 C-3.05733771 227.43482884 -4.86072126 228.67441489 -6.6640625 229.9140625 C-7.60266113 230.55472656 -8.54125977 231.19539062 -9.50830078 231.85546875 C-14.25673007 235.10562685 -18.97153244 238.4038958 -23.69140625 241.6953125 C-25.63517167 243.04722732 -27.57918381 244.39878748 -29.5234375 245.75 C-35.30964829 249.77192237 -41.09440763 253.79592815 -46.87890625 257.8203125 C-48.79556628 259.15365537 -50.71223295 260.4869887 -52.62890625 261.8203125 C-53.57765625 262.4803125 -54.52640625 263.1403125 -55.50390625 263.8203125 C-58.37890625 265.8203125 -61.25390625 267.8203125 -64.12890625 269.8203125 C-65.07830078 270.4807959 -66.02769531 271.1412793 -67.00585938 271.82177734 C-68.91588285 273.15041876 -70.82603837 274.47887036 -72.73632812 275.80712891 C-77.63075497 279.21067658 -82.52259913 282.61784317 -87.41015625 286.03125 C-92.2076878 289.38105884 -97.01387183 292.71810506 -101.82568359 296.04736328 C-104.15970566 297.66810035 -106.48296136 299.30313657 -108.8046875 300.94140625 C-118.81632393 307.93047731 -127.83694838 312.41721415 -140.37890625 310.8203125 C-150.22196264 308.23924438 -157.82185849 302.83404862 -163.125 294.1640625 C-167.5576013 285.87882643 -168.85199206 277.44919864 -166.79296875 268.18359375 C-162.28527869 255.01204069 -150.61206597 247.76777243 -139.6328125 240.35253906 C-136.01286571 237.89166536 -132.44843006 235.35349627 -128.87890625 232.8203125 C-127.45860407 231.81732483 -126.03803085 230.81472089 -124.6171875 229.8125 C-121.82215782 227.83961338 -119.02794243 225.86558153 -116.234375 223.890625 C-114.84507564 222.90882084 -113.45575263 221.92705013 -112.06640625 220.9453125 C-111.37869141 220.45909424 -110.69097656 219.97287598 -109.98242188 219.47192383 C-106.0577849 216.70039719 -102.12370631 213.94310511 -98.1796875 211.19921875 C-97.29772705 210.58481934 -96.4157666 209.97041992 -95.50708008 209.33740234 C-93.81177519 208.15722447 -92.11509703 206.97901567 -90.41674805 205.80322266 C-84.92903412 201.98123102 -79.61901282 197.97499078 -74.37890625 193.8203125 C-75.10871704 193.3238623 -75.10871704 193.3238623 -75.85327148 192.81738281 C-85.18447272 186.46468964 -94.48324458 180.07309166 -103.69262695 173.54492188 C-109.6079486 169.3552129 -115.55226812 165.20823699 -121.50390625 161.0703125 C-122.46321045 160.40161133 -123.42251465 159.73291016 -124.41088867 159.04394531 C-129.50482608 155.49658566 -134.61413486 151.97470582 -139.75 148.48828125 C-140.78688965 147.77961914 -141.8237793 147.07095703 -142.89208984 146.34082031 C-144.87002095 144.98968275 -146.85314257 143.6461005 -148.84228516 142.31152344 C-155.45218288 137.78030663 -161.22863472 133.03124507 -164.69140625 125.6328125 C-164.99691406 124.99988281 -165.30242187 124.36695313 -165.6171875 123.71484375 C-168.6175803 116.25232833 -168.72873322 107.02405936 -166.28515625 99.4140625 C-160.56395171 87.36301464 -151.29485867 81.50412238 -140.56689453 74.30273438 C-136.98986187 71.87919696 -133.46580433 69.38201266 -129.94140625 66.8828125 C-129.23709473 66.38434814 -128.5327832 65.88588379 -127.80712891 65.37231445 C-126.37785568 64.360686 -124.94881933 63.34872279 -123.52001953 62.33642578 C-119.97593336 59.82687331 -116.42722253 57.32387849 -112.87890625 54.8203125 C-108.66310347 51.84510507 -104.44771842 48.86931454 -100.234375 45.890625 C-91.78132928 39.91629193 -83.31031032 33.96832216 -74.82763672 28.03613281 C-69.44066717 24.26743677 -64.0621339 20.48711242 -58.69140625 16.6953125 C-57.66672241 15.97420288 -57.66672241 15.97420288 -56.62133789 15.23852539 C-53.00277376 12.68895594 -49.40326413 10.1165276 -45.82421875 7.51171875 C-44.69246216 6.69501709 -44.69246216 6.69501709 -43.5378418 5.86181641 C-42.1068353 4.82854762 -40.68078447 3.7883629 -39.26098633 2.73974609 C-27.35105249 -5.82295144 -12.92694563 -7.54217995 0 0 Z " fill="#FEFEFE" transform="translate(278.37890625,99.1796875)"/>
<path d="M0 0 C8.93971005 4.68748842 14.87779223 11.46931419 18.0859375 21.09375 C18.18870852 23.34109625 18.22971082 25.59140762 18.23983765 27.84107971 C18.24641103 28.87564699 18.24641103 28.87564699 18.2531172 29.93111461 C18.26649703 32.24778035 18.27268229 34.56440805 18.27880859 36.88110352 C18.2867104 38.54017814 18.2949794 40.19925104 18.30358887 41.85832214 C18.3298067 47.31308349 18.34511939 52.76785249 18.359375 58.22265625 C18.36473537 60.1017501 18.37011288 61.98084391 18.37550735 63.85993767 C18.39713851 71.67920676 18.41587331 79.49847379 18.42712975 87.31776524 C18.44335543 98.51475165 18.47649693 109.7113903 18.53353059 120.90824562 C18.57228157 128.78525498 18.59176872 136.66217153 18.59705031 144.53927368 C18.60069759 149.24128669 18.61265189 153.94292876 18.64515305 158.64483833 C18.67532342 163.07316575 18.68151375 167.50089955 18.66976929 171.92930794 C18.66954928 173.54897784 18.67779383 175.168676 18.69542313 176.78824997 C18.78949405 185.93300577 18.30142728 193.21937165 13.0859375 201.09375 C12.5290625 202.00125 11.9721875 202.90875 11.3984375 203.84375 C4.36783624 210.684335 -4.01138827 214.07271742 -13.7265625 214.46875 C-22.70859301 214.27812014 -29.62339459 211.2298733 -36.15625 205.09375 C-42.0218323 198.42002081 -44.03113119 191.94415335 -44.06123352 183.21270752 C-44.06491021 182.52073045 -44.0685869 181.82875337 -44.072375 181.11580729 C-44.08338621 178.79757492 -44.0872513 176.4793874 -44.09106445 174.16113281 C-44.09733101 172.49866596 -44.10397798 170.8362005 -44.11097717 169.17373657 C-44.13199589 163.7147926 -44.14237702 158.25584841 -44.15234375 152.796875 C-44.15639202 150.91618587 -44.16050897 149.03549688 -44.16469383 147.15480804 C-44.18374012 138.31923545 -44.19797274 129.48367119 -44.2063058 120.64808202 C-44.21607868 110.4546928 -44.24240189 100.2615207 -44.28280669 90.06820798 C-44.31297959 82.18526312 -44.32777576 74.30238047 -44.33108681 66.419379 C-44.33343581 61.71303338 -44.3423768 57.00691988 -44.36754799 52.30063629 C-44.39085452 47.87153895 -44.39505162 43.44282613 -44.38478661 39.01368332 C-44.38429177 37.39156947 -44.3905967 35.76943651 -44.40434265 34.14738083 C-44.52504208 19.05559946 -44.52504208 19.05559946 -39.9140625 12.09375 C-39.4190625 11.32804687 -38.9240625 10.56234375 -38.4140625 9.7734375 C-28.86293779 -1.71775942 -14.02421431 -5.63053957 0 0 Z " fill="#FEFEFE" transform="translate(376.9140625,96.90625)"/>
<path d="M0 0 C8.21313124 4.86973268 13.32458414 11.10773904 16.20703125 20.30859375 C17.74305514 30.69751206 16.48959889 39.58568992 10.20703125 48.30859375 C4.14799999 55.4479174 -3.07602655 59.31502449 -12.328125 60.68359375 C-20.8589138 61.11621695 -28.7357929 58.38976079 -35.23046875 52.87109375 C-42.34789938 46.01511975 -45.82986173 39.97278832 -46.19995117 30.08081055 C-46.29452236 23.03941849 -46.25687084 17.07835377 -41.79296875 11.30859375 C-41.09880859 10.30119141 -41.09880859 10.30119141 -40.390625 9.2734375 C-30.84312403 -3.21534739 -14.15694772 -6.78500479 0 0 Z " fill="#FDFDFD" transform="translate(378.79296875,349.69140625)"/>
</svg>
